<svg xmlns="http://www.w3.org/2000/svg" viewBox="0 0 460 120" role="img" aria-label="CareNBuddi — Your Health, Your Buddi.">
  <title>CareNBuddi — Your Health, Your Buddi.</title>
  <defs>
    <linearGradient id="bg" x1="0" y1="0" x2="1" y2="1">
      <stop offset="0" stop-color="#0B3044"/>
      <stop offset="1" stop-color="#062433"/>
    </linearGradient>
    <linearGradient id="heart" x1="0.1" y1="0" x2="0.85" y2="1">
      <stop offset="0" stop-color="#8BF0DB"/>
      <stop offset="0.55" stop-color="#4BDCB2"/>
      <stop offset="1" stop-color="#23C69C"/>
    </linearGradient>
    <linearGradient id="word" x1="0" y1="0" x2="1" y2="1">
      <stop offset="0" stop-color="#0DA894"/>
      <stop offset="1" stop-color="#0B8778"/>
    </linearGradient>
  </defs>
  <g transform="translate(4 12) scale(0.1875)">
    <rect width="512" height="512" fill="url(#bg)"/>
    <path fill="url(#heart)" d="M256 444 C144 368 36 296 36 192 C36 120 88 84 156 84 C202 84 240 104 256 132 C272 104 310 84 356 84 C424 84 476 120 476 192 C476 296 368 368 256 444 Z"/>
    <rect x="148" y="140" width="220" height="132" rx="46" fill="#FFFFFF"/>
    <polygon points="174,266 252,272 152,350" fill="#FFFFFF"/>
    <g fill="#0193A6">
      <circle cx="207" cy="206" r="21"/>
      <circle cx="256" cy="206" r="21"/>
      <circle cx="305" cy="206" r="21"/>
    </g>
    <g fill="#F4685A">
      <rect x="292" y="118" width="108" height="44" rx="14"/>
      <rect x="324" y="86" width="44" height="108" rx="14"/>
    </g>
  </g>
  <text x="118" y="82" font-family="Poppins, Montserrat, 'Segoe UI', system-ui, sans-serif" font-size="58" font-weight="700" textLength="334" lengthAdjust="spacingAndGlyphs" fill="#123B4A">CareN<tspan fill="url(#word)">Buddi</tspan></text>
</svg>
